<svg width="32" height="24" viewBox="0 0 32 24" fill="none" xmlns="http://www.w3.org/2000/svg">
<path d="M12.7676 7.23245L17.5353 12.0001L12.7676 16.7677L13.899 17.8991L18.6667 13.1315L23.4343 17.8991L24.5657 16.7677L19.798 12.0001L24.5657 7.23245L23.4343 6.10107L18.6667 10.8687L13.899 6.10107L12.7676 7.23245Z" fill="black" fill-opacity="0.87"/>
<path fill-rule="evenodd" clip-rule="evenodd" d="M0 12L7.21333 22.8133C7.69333 23.52 8.41333 24 9.33333 24H29.3333C30.8 24 32 22.8 32 21.3333V2.66667C32 1.2 30.8 0 29.3333 0H9.33333C8.41333 0 7.69333 0.466667 7.21333 1.17333L0 12ZM9.33333 1.6H29.3333C29.9163 1.6 30.4 2.08366 30.4 2.66667V21.3333C30.4 21.9163 29.9163 22.4 29.3333 22.4H9.33333C9.04561 22.4 8.78296 22.2743 8.54009 21.919L1.92296 11.9995L8.54028 2.06736C8.77293 1.72728 9.03019 1.6 9.33333 1.6Z" fill="black" fill-opacity="0.87"/>
</svg>
